<?xml version="1.0" standalone="no"?><!DOCTYPE svg PUBLIC "-//W3C//DTD SVG 1.1//EN" "http://www.w3.org/Graphics/SVG/1.1/DTD/svg11.dtd"><svg t="1620827101787" class="icon" viewBox="0 0 1024 1024" version="1.1" xmlns="http://www.w3.org/2000/svg" p-id="1872" xmlns:xlink="http://www.w3.org/1999/xlink" width="200" height="200"><defs><style type="text/css"></style></defs><path d="M312.07619 248.685714L253.561905 414.47619h121.904762L312.07619 248.685714z m385.219048-14.628571h-63.390476v273.066667h63.390476c43.885714 0 78.019048-9.752381 97.52381-34.133334 19.504762-24.380952 29.257143-58.514286 29.257142-102.4 0-48.761905-9.752381-82.895238-29.257142-102.4-19.504762-24.380952-53.638095-34.133333-97.52381-34.133333zM936.228571 0H82.895238C53.638095 0 24.380952 29.257143 24.380952 63.390476v653.409524c0 34.133333 29.257143 63.390476 58.514286 63.390476h853.333333c34.133333 0 63.390476-29.257143 63.390477-63.390476V63.390476c0-34.133333-24.380952-63.390476-63.390477-63.390476zM424.228571 560.761905l-34.133333-97.52381H238.933333l-34.133333 97.52381H146.285714l136.533334-370.590476h63.390476l136.533333 370.590476H424.228571z m409.6-53.638095c-29.257143 34.133333-73.142857 48.761905-131.657142 48.761904h-126.780953V185.295238H707.047619c58.514286 0 102.4 14.628571 131.657143 48.761905 29.257143 29.257143 43.885714 78.019048 43.885714 136.533333-4.87619 58.514286-19.504762 107.27619-48.761905 136.533334zM24.380952 1024h975.238096v-121.904762H24.380952V1024z m0 0" p-id="1873"></path></svg>