<?xml version="1.0" standalone="no"?><!DOCTYPE svg PUBLIC "-//W3C//DTD SVG 1.1//EN" "http://www.w3.org/Graphics/SVG/1.1/DTD/svg11.dtd"><svg t="1590476609436" class="icon" viewBox="0 0 1024 1024" version="1.1" xmlns="http://www.w3.org/2000/svg" p-id="1049" xmlns:xlink="http://www.w3.org/1999/xlink" width="200" height="200"><defs><style type="text/css"></style></defs><path d="M526.421333 0l425.002667 155.050667a38.229333 38.229333 0 0 1 26.965333 36.906666v286.677334c0 341.034667-371.498667 490.837333-462.421333 537.386666a37.717333 37.717333 0 0 1-33.877333 0C390.912 969.514667 43.349333 821.290667 43.349333 480.682667V192.981333a39.466667 39.466667 0 0 1 26.112-36.821333L500.522667 0h25.898666z m-15.573333 255.018667a127.488 127.488 0 0 0-41.898667 247.936 38.869333 38.869333 0 0 0-0.597333 7.082666v212.48a42.496 42.496 0 0 0 84.992 0v-212.48a37.376 37.376 0 0 0-0.64-7.04 127.573333 127.573333 0 0 0-41.813333-247.978666z" p-id="1050"></path></svg>