<?xml version="1.0" standalone="no"?><!DOCTYPE svg PUBLIC "-//W3C//DTD SVG 1.1//EN" "http://www.w3.org/Graphics/SVG/1.1/DTD/svg11.dtd"><svg t="1621599407700" class="icon" viewBox="0 0 1024 1024" version="1.1" xmlns="http://www.w3.org/2000/svg" p-id="4931" xmlns:xlink="http://www.w3.org/1999/xlink" width="200" height="200"><defs><style type="text/css"></style></defs><path d="M588.06 796.444H170.667A113.778 113.778 0 0 1 56.889 682.667V227.556a113.778 113.778 0 0 1 113.778-113.778h682.666a113.778 113.778 0 0 1 113.778 113.778v455.11c0 4.125-0.227 8.221-0.654 12.232a199.111 199.111 0 0 1-378.425 101.546zM768 853.334a142.222 142.222 0 1 0 0-284.445 142.222 142.222 0 0 0 0 284.444zM313.372 445.581a199.111 199.111 0 0 0-114.26 180.196 28.444 28.444 0 0 0 56.888 0 142.222 142.222 0 0 1 284.444 0 28.444 28.444 0 0 0 56.89 0 199.111 199.111 0 0 0-114.262-180.196 113.778 113.778 0 1 0-169.671 0z m84.85-18.915a56.889 56.889 0 1 1 0-113.778 56.889 56.889 0 0 1 0 113.778zM625.778 256a28.444 28.444 0 0 0 0 56.889h170.666a28.444 28.444 0 0 0 0-56.889H625.778z m0 113.778a28.444 28.444 0 0 0 0 56.889h113.778a28.444 28.444 0 0 0 0-56.89H625.778z m129.024 360.021l80.44-80.47a28.444 28.444 0 0 1 40.221 40.25L754.802 810.24l-80.47-80.44a28.444 28.444 0 1 1 40.22-40.221l40.25 40.22z" p-id="4932"></path></svg>