<?xml version="1.0" standalone="no"?><!DOCTYPE svg PUBLIC "-//W3C//DTD SVG 1.1//EN" "http://www.w3.org/Graphics/SVG/1.1/DTD/svg11.dtd"><svg t="1594262863328" class="icon" viewBox="0 0 1056 1024" version="1.1" xmlns="http://www.w3.org/2000/svg" p-id="1802" xmlns:xlink="http://www.w3.org/1999/xlink" width="206.25" height="200"><defs><style type="text/css"></style></defs><path d="M1000.192 614.4c28.416 17.056 39.808 39.808 28.416 68.256C943.296 887.456 749.888 1024 528 1024c-153.6 0-295.808-62.592-392.544-170.656v113.76c0 28.48-28.448 56.896-56.864 56.896-28.48 0-56.896-28.448-56.896-56.896V665.6c0-22.752 11.36-45.504 34.112-51.2 5.696-5.696 17.088-5.696 22.784-5.696 22.72 0 39.808 11.392 51.2 28.48v5.664c68.256 159.296 221.856 267.36 398.208 267.36 176.352 0 329.952-108.064 398.208-267.36 11.392-28.448 45.536-45.504 73.984-28.448zM738.496 244.608c22.72 22.784 22.72 56.896 0 79.68l-73.952 73.92h91.008c28.448 0 56.896 28.48 56.896 56.896 0 28.48-28.448 56.896-56.896 56.896h-170.656v56.896h113.76c28.48 0 56.896 28.448 56.896 56.896 0 28.416-28.448 56.864-56.896 56.864h-113.76v56.896c0 28.448-28.48 56.896-56.896 56.896-28.448 0-56.896-28.448-56.896-56.896v-56.896h-113.76c-28.48 0-56.896-28.448-56.896-56.864 0-28.48 28.448-56.896 56.896-56.896h113.76V512H300.48c-28.448 0-56.896-28.448-56.896-56.896s28.448-56.896 56.896-56.896h96.704l-68.256-73.92c-22.752-22.784-22.752-56.896 0-79.68 22.72-22.72 56.896-22.72 79.648 0l125.12 125.184 125.184-125.184c22.752-22.72 56.896-22.72 79.648 0zM983.104 0c28.48 0 56.896 28.448 56.896 56.896V358.4c0 22.752-11.392 45.504-34.144 51.2-5.664 5.696-17.056 5.696-22.72 5.696-22.784 0-39.84-11.392-51.2-28.48v-5.664a431.552 431.552 0 0 0-398.24-267.36c-176.352 0-329.952 108.064-398.24 267.36-11.36 28.448-45.504 45.504-73.92 34.144-28.48-11.392-45.536-45.504-28.48-73.952C118.4 136.544 311.808 0 533.696 0c153.6 0 295.808 62.592 392.512 170.656V56.896c0-28.48 28.48-56.896 56.896-56.896z" p-id="1803"></path></svg>