<?xml version="1.0" standalone="no"?><!DOCTYPE svg PUBLIC "-//W3C//DTD SVG 1.1//EN" "http://www.w3.org/Graphics/SVG/1.1/DTD/svg11.dtd"><svg t="1596163884147" class="icon" viewBox="0 0 1024 1024" version="1.1" xmlns="http://www.w3.org/2000/svg" p-id="21620" xmlns:xlink="http://www.w3.org/1999/xlink" width="200" height="200"><defs><style type="text/css"></style></defs><path d="M713.5 516.2c11.1-57.7-0.9-116.2-33.9-164.9-33-48.6-82.9-81.5-140.6-92.6-13.8-2.6-27.8-4-41.7-4-105.2 0-195.9 75.1-215.8 178.5-11.1 57.7 1 116.2 33.9 164.9 33 48.6 82.9 81.5 140.6 92.6 13.8 2.7 27.8 4 41.8 4 33.1 0 66.2-7.7 96-22.2 0.8 1.7 1.7 3.4 2.8 5l62.7 92.6c5.9 8.8 15.8 14 26.4 14 6.3 0 12.5-1.9 17.8-5.5 14.5-9.8 18.3-29.6 8.5-44.2l-62.7-92.5c-1.1-1.6-2.3-3.1-3.7-4.5 35.4-32.2 58.9-74 67.9-121.2zM629.3 459L605 440c-3.3-3.3-8.1-5.5-13.5-6-1-0.1-2-0.2-3.1-0.1h-0.1c-4.9 0-9.5 1.3-13.2 3.7-4 2.5-6.6 6.2-7.2 10.3l-21.6 50.8-34.9-108.4c-2.4-7-10.6-11.9-20-11.9h-0.7c-8.4 0-15.8 3.8-19 9.7l-0.1 0.2L425.7 496 384 463.8c-3.9-3-9-4.6-14.5-4.6H342c0.5-4.6 1.1-9.3 2-13.9 14.1-73.5 78.6-126.9 153.4-126.9 9.9 0 19.9 1 29.7 2.8 41 7.9 76.5 31.2 99.9 65.8 14.8 21.8 23.7 46.5 26.2 72h-23.9z m-268.5 32.2l59 45.6c3.9 3 9.1 4.6 14.6 4.6H435c8.3 0 15.7-3.8 18.9-9.7l0.1-0.2 34.4-80.7 35.1 109c2.3 7 10.5 11.9 19.9 11.9h0.4c9.9 0 18.3-5.4 20.1-12.9l33.6-79 8.2 6.4c1.7 1.3 3.7 2.4 5.8 3.1 3 1.2 6.2 1.8 9.5 1.8h32c-0.5 4.4-1.1 8.7-1.9 13.1-14.1 73.5-78.6 126.9-153.3 126.9-9.9 0-19.9-1-29.7-2.8-41-7.9-76.5-31.2-99.9-65.8-14.6-21.6-23.5-46-26.1-71.2l18.7-0.1zM960 512c0 247.4-200.6 448-448 448S64 759.4 64 512 264.6 64 512 64s448 200.6 448 448z" p-id="21621"></path></svg>