<?xml version="1.0" standalone="no"?><!DOCTYPE svg PUBLIC "-//W3C//DTD SVG 1.1//EN" "http://www.w3.org/Graphics/SVG/1.1/DTD/svg11.dtd"><svg t="1609078464876" class="icon" viewBox="0 0 1024 1024" version="1.1" xmlns="http://www.w3.org/2000/svg" p-id="2233" xmlns:xlink="http://www.w3.org/1999/xlink" width="200" height="200"><defs><style type="text/css"></style></defs><path d="M764.90908 14.756943l0 112.961961-52.114407 0L712.794673 14.756943 538.529082 14.756943l0 112.961961-52.114407 0L486.414676 14.756943 312.149085 14.756943l0 112.961961L260.034678 127.718905 260.034678 14.756943l-163.373991 0 0 997.023874 823.092437 0L919.753124 14.756943 764.90908 14.756943zM822.03579 332.049283l-0.009031 0c-64.396807 17.041831-132.550584 24.632535-204.479393 22.722441l-45.435851 0 0 82.359818 232.877929 0 0 275.473475c3.775032 75.739966-35.063545 112.623292-116.434449 110.753839l-76.683724 0L611.87127 741.00807l36.919451 0c22.726957 1.905578 33.108295-9.455642 31.247872-34.079146l0-187.442078-107.922565 0 0 372.034819L441.480055 891.521665l0-372.034819L342.07389 519.486846l0 303.876527L217.118525 823.363373 217.118525 437.131543l224.361529 0L441.480055 354.771725 194.4006 354.771725 194.4006 272.416422l406.113966 0c73.847934 1.910094 147.682321-6.615337 221.52574-25.558231L822.040305 332.049283z" p-id="2234"></path></svg>