<?xml version="1.0" standalone="no"?><!DOCTYPE svg PUBLIC "-//W3C//DTD SVG 1.1//EN" "http://www.w3.org/Graphics/SVG/1.1/DTD/svg11.dtd"><svg t="1609078337643" class="icon" viewBox="0 0 1024 1024" version="1.1" xmlns="http://www.w3.org/2000/svg" p-id="2092" xmlns:xlink="http://www.w3.org/1999/xlink" width="200" height="200"><defs><style type="text/css"></style></defs><path d="M511.327177 26.51102C241.416907 26.51102 22.614067 245.31386 22.614067 515.219615c0 269.905755 218.80284 488.717626 488.71311 488.717626 269.901239 0 488.708595-218.807355 488.708595-488.717626C1000.035772 245.31386 781.232932 26.51102 511.327177 26.51102zM825.142514 278.083485c-64.392292 17.041831-132.550584 24.632535-204.479393 22.722441l-45.435851 0 0 82.359818 232.877929 0 0 275.473475c3.775032 75.744481-35.059029 112.623292-116.434449 110.758354l-76.683724 0 0-82.359818 36.919451 0c22.726957 1.910094 33.108295-9.451127 31.247872-34.079146l0-187.437562-107.922565 0 0 372.034819-130.635975 0 0-372.034819L345.189646 465.521048l0 303.876527L220.229766 769.397575 220.229766 383.165745l224.361529 0L444.591295 300.805927 197.51184 300.805927 197.51184 218.446108l406.113966 0c73.847934 1.910094 147.682321-6.610822 221.521224-25.558231L825.14703 278.083485z" p-id="2093"></path></svg>