<?xml version="1.0" standalone="no"?><!DOCTYPE svg PUBLIC "-//W3C//DTD SVG 1.1//EN" "http://www.w3.org/Graphics/SVG/1.1/DTD/svg11.dtd"><svg t="1610438746895" class="icon" viewBox="0 0 1024 1024" version="1.1" xmlns="http://www.w3.org/2000/svg" p-id="3202" xmlns:xlink="http://www.w3.org/1999/xlink" width="200" height="200"><defs><style type="text/css"></style></defs><path d="M405.506 270.569v-119.794s0.336-6.353-12.169-9.109c-10.487-2.302-20.52 4.774-20.52 4.774-4.42 3.158-211.286 149.859-211.286 149.859s-19.764 10.084-19.764 30.032c0 19.496 13.999 27.444 13.999 27.444l212.529 145.843s13.462 4.925 24.957 2.487c12.386-2.622 12.253-11.68 12.253-11.68v-112.113h206.765s163.035 21.898 163.035 82.333c0 0-2.756-190.076-168.312-190.076h-201.488zM616.976 753.66v119.911s2.218 7.294 15.495 9.024c8.891 1.16 14.403-3.343 16.369-4.689l211.488-149.994s19.796-10.101 19.796-30.066c0-19.529-14.049-27.46-14.049-27.46l-212.715-145.977s-8.84-5.361-20.889-2.219c-14.873 3.864-15.495 11.427-15.495 11.427v112.214h-207.807s-163.17-21.931-163.17-82.4c0 0 2.739 190.245 168.43 190.245l202.547-0.018z" p-id="3203"></path></svg>