<?xml version="1.0" standalone="no"?><!DOCTYPE svg PUBLIC "-//W3C//DTD SVG 1.1//EN" "http://www.w3.org/Graphics/SVG/1.1/DTD/svg11.dtd"><svg t="1610604983375" class="icon" viewBox="0 0 1024 1024" version="1.1" xmlns="http://www.w3.org/2000/svg" p-id="2615" xmlns:xlink="http://www.w3.org/1999/xlink" width="200" height="200"><defs><style type="text/css"></style></defs><path d="M483.3 520.3c0 25 20.2 45.4 45.1 45.4 25 0 45.1-20.5 45.1-45.4 0-25-20.2-45-45.1-45-25.1-0.2-45.1 20-45.1 45zM356.7 435.1c-45.4 0-82.1 36.8-82.1 82.2 0 45.4 36.8 82 82.2 82 45.4 0 82.1-36.8 82.1-82.1-0.1-45.5-36.8-82.1-82.2-82.1z" p-id="2616"></path><path d="M622.7 427.1c5.1-13.7-1.7-27.4-15.4-30.9-13.7-5.1-27.4 3.4-30.9 15.4-5.1 13.7 1.7 27.4 15.4 30.9 13.8 3.5 27.5-3.4 30.9-15.4zM686.1 406.6c5.1-13.7-1.7-27.4-15.4-30.9-13.7-5.1-27.4 3.4-30.9 15.4-5.1 13.7 1.7 27.4 15.4 30.9 12.1 3.4 25.8-3.4 30.9-15.4zM636.4 449.4c-13.7-5.1-27.4 3.4-30.9 15.4-5.1 13.7 1.7 27.4 15.4 30.9 13.7 5.1 27.4-3.4 30.9-15.4 5.2-12-3.4-25.7-15.4-30.9z" p-id="2617"></path><path d="M975.4 316.2c-25.3-59.9-61.6-113.7-107.8-159.9-46.2-46.2-100-82.4-159.9-107.8C645.7 22.4 579.9 9.1 512 9.1c-67.9 0-133.7 13.3-195.8 39.5-11.3 4.8-22.5 10-33.4 15.6-46.6 23.9-89.1 54.8-126.5 92.2-46.2 46.2-82.4 100-107.8 159.9C22.4 378.2 9.1 444.1 9.1 512c0 67.9 13.3 133.8 39.5 195.8 25.3 59.9 61.6 113.7 107.8 159.9 46.2 46.2 100 82.4 159.9 107.8 62 26.2 127.9 39.5 195.8 39.5s133.8-13.3 195.8-39.5c59.9-25.3 113.7-61.6 159.9-107.8s82.4-100 107.8-159.9c26.2-62 39.5-127.9 39.5-195.8-0.2-67.9-13.5-133.8-39.7-195.8zM806.2 752.9c-85.7 0-161.2-140.6-289.8-140.6-157.7 0-173.2 142.3-289.8 142.3-137.2 0-32.6-485.2 150.9-485.2 104.6 44.6 171.5 49.7 272.6 0 150.9 0 289.8 483.5 156.1 483.5z" p-id="2618"></path><path d="M701.6 432.3c-13.7-5.1-27.4 3.4-30.9 15.4-5.1 13.7 1.7 27.4 15.4 30.9 13.7 5.1 27.4-3.4 30.9-15.4 3.4-13.8-3.4-27.5-15.4-30.9z" p-id="2619"></path></svg>