<?xml version="1.0" standalone="no"?><!DOCTYPE svg PUBLIC "-//W3C//DTD SVG 1.1//EN" "http://www.w3.org/Graphics/SVG/1.1/DTD/svg11.dtd"><svg t="1610603710622" class="icon" viewBox="0 0 1024 1024" version="1.1" xmlns="http://www.w3.org/2000/svg" p-id="2474" xmlns:xlink="http://www.w3.org/1999/xlink" width="200" height="200"><defs><style type="text/css"></style></defs><path d="M918.4 505.6c-28.8-99.2-67.2-188.8-80-214.4-16-32-38.4-54.4-67.2-70.4-28.8-16-67.2-25.6-108.8-25.6h-294.4c-48 0-83.2 9.6-112 25.6-28.8 16-54.4 41.6-70.4 70.4-12.8 25.6-51.2 115.2-80 214.4-38.4 131.2-41.6 224-16 278.4 16 28.8 41.6 48 73.6 51.2 12.8 3.2 25.6 3.2 38.4 3.2 86.4 0 128-44.8 163.2-83.2 22.4-22.4 41.6-44.8 70.4-57.6h166.4c28.8 12.8 48 35.2 67.2 57.6 19.2 22.4 35.2 44.8 67.2 64 32 19.2 73.6 25.6 124.8 19.2 32-3.2 57.6-22.4 73.6-51.2 25.6-54.4 19.2-147.2-16-281.6z m-467.2-19.2h-70.4v70.4c0 9.6-9.6 19.2-19.2 19.2s-19.2-9.6-19.2-19.2v-70.4H268.8c-9.6 0-19.2-9.6-19.2-19.2s9.6-19.2 19.2-19.2h70.4v-70.4c0-9.6 9.6-19.2 19.2-19.2s19.2 9.6 19.2 19.2V448H448c9.6 0 19.2 9.6 19.2 19.2s-6.4 19.2-16 19.2z m230.4-60.8c0 22.4-19.2 41.6-41.6 41.6-22.4 0-41.6-19.2-41.6-41.6 0-22.4 19.2-41.6 41.6-41.6s41.6 19.2 41.6 41.6z m99.2 99.2c0 22.4-19.2 41.6-41.6 41.6-22.4 0-41.6-19.2-41.6-41.6 0-22.4 19.2-41.6 41.6-41.6s41.6 19.2 41.6 41.6z" p-id="2475"></path></svg>