<?xml version="1.0" standalone="no"?><!DOCTYPE svg PUBLIC "-//W3C//DTD SVG 1.1//EN" "http://www.w3.org/Graphics/SVG/1.1/DTD/svg11.dtd"><svg t="1610599369306" class="icon" viewBox="0 0 1024 1024" version="1.1" xmlns="http://www.w3.org/2000/svg" p-id="1719" xmlns:xlink="http://www.w3.org/1999/xlink" width="200" height="200"><defs><style type="text/css"></style></defs><path d="M881.614617 601.400123c-28.888957-103.58724-90.816378-183.636391-187.550536-238.002603-8.352225-4.707209-17.038048-8.832156-25.724895-12.997012-40.764426-9.956769-94.715175-18.87079-157.370167-18.870789-62.698994 0-116.646674 8.912997-157.431565 18.911722-151.683654 67.865667-214.567867 171.284061-225.524407 322.364988-2.854001 39.240723-0.478907 78.111009 9.830903 116.562763 16.101723 60.594053 71.634504 105.9828 138.289599 105.857956 156.975171-0.334621 314.115094 0 471.088219-0.209778 50.448996-0.124843 89.276303-21.850657 117.458155-61.427024 14.332427-20.119223 21.061688-42.970674 24.870434-66.966181 9.103332-55.491849 7.228635-110.775966-7.93574-165.224042zM616.743064 742.397391h-63.696717c-0.813528 0-1.417279 0.688685-1.41728 1.375323v29.328979h-0.333597c0.459464 2.394537 0.811482 4.894474 0.811481 7.393387 0 21.039175-18.10024 38.202067-40.389895 38.202067-22.242584 0-40.367383-17.038048-40.367383-38.202067 0-2.623757 0.376577-4.998851 0.832971-7.393387h-0.832971V743.752248c0-0.791016-0.686638-1.353834-1.416256-1.353834H406.737096c-17.791202 0-32.348756-13.644765-32.348755-30.577413 0-16.95516 14.455223-30.598902 32.348755-30.598902h63.196321c0.833995 0 1.416256-0.668219 1.416256-1.353834v-27.64257c0-0.792039-0.686638-1.373277-1.416256-1.373277h-63.092967v-0.106424h-0.103354c-17.791202 0-32.348756-13.641695-32.348755-30.596855 0-16.832364 14.455223-30.578436 32.348755-30.578436h57.864896c0.62524 0 1.206478-0.334621 1.332345-0.895393 0.458441-1.270946 1.042749-2.397606 1.749853-3.542686 0.373507-0.562818 0.248663-1.25048-0.208754-1.705851l-71.529104-67.656913c-8.998955-8.41567-6.0416-25.01779 6.499018-36.848233 12.561084-11.83249 30.078039-14.663978 38.972617-6.124487l69.718874 66.051345c0.603751 0.562818 1.540076 0.562818 2.145873 0l64.51127-65.051575c10.204409-10.56052 30.908964-7.957229 43.574424 4.103458 12.559037 12.06171 18.828834 22.976294 6.41613 36.264948l-75.779917 73.361845c-0.37453 0.332575-0.479931 0.665149-0.479931 1.125636 0.105401 0.687662 0.708128 1.25048 1.416256 1.250481h63.593364v0.12382c17.749246 0.12382 32.079626 13.749142 32.079626 30.578435 0 16.83134-14.33038 30.474059-32.079626 30.474059h-63.48694c-0.813528 0-1.417279 0.687662-1.417279 1.375324v27.641547c0 0.789992 0.708128 1.353834 1.417279 1.353834h63.696718v0.104377c17.767666 0.12382 32.076556 13.767562 32.076556 30.579459-0.001023 16.619516-14.308891 30.159904-32.07758 30.263258zM329.497944 310.804698c42.535769-12.248975 105.817024-25.393343 181.471075-25.393343 75.489298 0 138.600685 13.080923 181.157943 25.287943 7.644097-10.747785 13.935384-22.330588 18.641569-34.868136 4.247744-11.375072 6.625908-23.309892 9.956769-35.016514 7.561209-27.183106 0.229221-50.596352-21.684881-68.550259-29.599132-24.246217-63.343677-27.079752-98.857519-12.873192-2.478448 1.02126-4.14439 1.707898-6.51846-0.562819-45.699832-41.513486-119.104655-41.971927-165.160598-0.895393-2.125407 1.917676-3.664459 2.37407-6.51846 1.125637-18.707061-8.289804-38.246069-9.998725-58.242496-6.0416-38.012755 7.520277-69.384253 38.557154-63.820537 80.988546 3.747347 28.493961 13.496385 54.009078 29.575595 76.79913z m0 0" p-id="1720"></path></svg>