<?xml version="1.0" standalone="no"?><!DOCTYPE svg PUBLIC "-//W3C//DTD SVG 1.1//EN" "http://www.w3.org/Graphics/SVG/1.1/DTD/svg11.dtd"><svg t="1610083015373" class="icon" viewBox="0 0 1024 1024" version="1.1" xmlns="http://www.w3.org/2000/svg" p-id="4772" xmlns:xlink="http://www.w3.org/1999/xlink" width="200" height="200"><defs><style type="text/css"></style></defs><path d="M487.039923 170.9568z m26.9824 58.1632c-218.4704 0-395.52 177.92-395.52 397.4656S295.551923 1024 514.022323 1024s395.52-177.9712 395.52-397.4144-177.1008-397.4656-395.52-397.4656m203.3664 361.984l-77.9776 76.3904 18.432 107.8784c6.1952 36.1984-14.3872 52.0192-47.4112 34.6112l-96.4096-51.2-96.4096 51.2c-32.3584 17.1008-53.7088 2.3552-47.4112-34.6112l18.432-107.8784-77.9776-76.3904c-26.1632-25.6-18.7392-50.5856 18.1248-56.0128l107.776-15.7696 48.1792-98.0992c16.1792-32.9728 42.0864-33.5872 58.624 0l48.2304 98.1504 107.52 15.7696c36.1984 5.12 44.8 29.8496 18.1248 56.0128M906.265523 44.6464a27.7504 27.7504 0 0 0 5.7344-16.2304A28.3136 28.3136 0 0 0 883.788723 0h-244.5824a27.904 27.904 0 0 0-26.88 21.5552L536.908723 170.9568s161.4336 9.728 256.7168 101.9904l112.64-228.3008M487.039923 170.9568L411.724723 21.5552A27.904 27.904 0 0 0 384.844723 0H140.262323A28.3136 28.3136 0 0 0 111.999923 28.3648a27.8016 27.8016 0 0 0 5.7856 16.2816l112.64 228.3008c95.4368-92.16 256.8192-102.0416 256.8192-102.0416" p-id="4773"></path></svg>