<?xml version="1.0" standalone="no"?><!DOCTYPE svg PUBLIC "-//W3C//DTD SVG 1.1//EN" "http://www.w3.org/Graphics/SVG/1.1/DTD/svg11.dtd"><svg t="1610460448211" class="icon" viewBox="0 0 1024 1024" version="1.1" xmlns="http://www.w3.org/2000/svg" p-id="6208" xmlns:xlink="http://www.w3.org/1999/xlink" width="200" height="200"><defs><style type="text/css"></style></defs><path d="M512 0C229.376 0 0 229.034667 0 512s229.376 512 512 512c282.965333 0 512-229.376 512-512C1024 229.034667 794.965333 0 512 0z m-67.584 766.634667c-51.541333 51.541333-135.509333 51.541333-187.050667 0s-51.541333-135.509333 0-187.050667l132.437334-132.437333c51.541333-51.541333 135.509333-51.541333 187.050666 0l4.096 4.096c0.682667 0.682667 1.365333 1.365333 2.389334 2.048 2.048 2.048 3.754667 4.437333 5.12 6.826666 0 0.341333 0.341333 0.341333 0.341333 0.682667 6.485333 11.946667 4.437333 27.306667-5.461333 37.205333-10.24 10.24-25.6 11.946667-37.546667 5.461334-1.024 1.024-9.216-7.509333-13.653333-11.605334-26.965333-26.965333-70.314667-27.306667-97.28-0.341333l-132.437334 132.437333c-26.965333 26.965333-26.965333 70.656 0 97.28 26.965333 26.965333 70.656 26.965333 97.28 0l79.872-79.872c27.648 13.653333 60.416 13.994667 88.405334 1.024l-123.562667 124.245334z m322.218667-322.218667L634.197333 576.853333c-51.541333 51.541333-135.509333 51.541333-187.050666 0l-4.096-4.096c-0.682667-0.682667-1.365333-1.365333-2.389334-2.048-2.048-2.048-3.754667-4.437333-5.12-6.826666 0-0.341333-0.341333-0.341333-0.341333-0.682667-6.485333-11.946667-4.437333-27.306667 5.461333-37.205333 10.24-10.24 25.6-11.946667 37.546667-5.461334 1.024-1.024 9.216 7.509333 13.653333 11.605334 26.965333 26.965333 70.314667 27.306667 97.28 0.341333l132.778667-132.778667c26.965333-26.965333 26.965333-70.656 0-97.28-26.965333-26.965333-70.656-26.965333-97.28 0L544.768 382.293333c-27.648-13.653333-60.416-13.994667-88.405333-1.024l123.562666-123.562666c51.541333-51.541333 135.509333-51.541333 187.050667 0 51.2 51.2 51.2 135.168-0.341333 186.709333z m0 0z" p-id="6209"></path></svg>