<?xml version="1.0" standalone="no"?><!DOCTYPE svg PUBLIC "-//W3C//DTD SVG 1.1//EN" "http://www.w3.org/Graphics/SVG/1.1/DTD/svg11.dtd"><svg t="1590736536393" class="icon" viewBox="0 0 1024 1024" version="1.1" xmlns="http://www.w3.org/2000/svg" p-id="1167" xmlns:xlink="http://www.w3.org/1999/xlink" width="200" height="200"><defs><style type="text/css"></style></defs><path d="M876 128h-88.43c-10.5 0.17-19.03 8.44-19.62 18.82-0.03 0.39-0.04 0.78-0.04 1.17-0.97 20.57-9.71 39.11-23.34 52.74-14.48 14.48-34.48 23.43-56.57 23.43H336c-43.24 0-78.48-34.31-79.95-77.2-0.53-10.45-9.08-18.79-19.63-18.96H148c-11.04 0-20 8.95-20 20v792c0 11.05 8.96 20 20 20h728c11.05 0 20-8.95 20-20V148c0-11.05-8.95-20-20-20zM768 790.21c0 5.52-4.48 10-10 10H266c-5.52 0-10-4.48-10-10v-44c0-5.52 4.48-10 10-10h492c5.52 0 10 4.48 10 10v44z m0-192c0 5.52-4.48 10-10 10H266c-5.52 0-10-4.48-10-10v-44c0-5.52 4.48-10 10-10h492c5.52 0 10 4.48 10 10v44z m0-192.01c0 5.52-4.48 10-10 10H266c-5.52 0-10-4.48-10-10v-44c0-5.52 4.48-10 10-10h492c5.52 0 10 4.48 10 10v44z" p-id="1168"></path><path d="M624 160.17H400c-26.51 0-48-21.49-48-48s21.49-48 48-48h224c26.51 0 48 21.49 48 48s-21.49 48-48 48zM236.42 128h-0.68c0.11-0.01 0.23-0.01 0.34-0.01 0.11 0 0.23 0 0.34 0.01z" p-id="1169"></path><path d="M788.25 128h-0.68c0.11-0.01 0.23-0.01 0.34-0.01 0.11 0 0.23 0 0.34 0.01z" p-id="1170"></path></svg>