<?xml version="1.0" standalone="no"?><!DOCTYPE svg PUBLIC "-//W3C//DTD SVG 1.1//EN" "http://www.w3.org/Graphics/SVG/1.1/DTD/svg11.dtd"><svg t="1595215355869" class="icon" viewBox="0 0 1024 1024" version="1.1" xmlns="http://www.w3.org/2000/svg" p-id="820" xmlns:xlink="http://www.w3.org/1999/xlink" width="200" height="200"><defs><style type="text/css"></style></defs><path d="M853.333333 128a85.333333 85.333333 0 0 1 85.333334 85.333333v469.333334a85.333333 85.333333 0 0 1-85.333334 85.333333h-170.666666v42.666667H341.333333v-42.666667H170.666667a85.333333 85.333333 0 0 1-24.96-3.712c10.581333 0.512 21.248 0.768 31.914666 0.768 359.424 0 652.928-282.154667 671.146667-637.013333H853.333333zM177.621333 701.056c-31.104 0-61.653333-2.346667-91.477333-6.826667A83.626667 83.626667 0 0 1 85.333333 682.666667V213.333333a85.333333 85.333333 0 0 1 85.333334-85.333333L784.64 128c-18.090667 319.530667-282.965333 573.056-607.018667 573.056z" p-id="821"></path><path d="M170.666667 853.333333m42.666666 0l597.333334 0q42.666667 0 42.666666 42.666667l0 0q0 42.666667-42.666666 42.666667l-597.333334 0q-42.666667 0-42.666666-42.666667l0 0q0-42.666667 42.666666-42.666667Z" p-id="822"></path></svg>