<?xml version="1.0" standalone="no"?><!DOCTYPE svg PUBLIC "-//W3C//DTD SVG 1.1//EN" "http://www.w3.org/Graphics/SVG/1.1/DTD/svg11.dtd"><svg t="1620030842653" class="icon" viewBox="0 0 1024 1024" version="1.1" xmlns="http://www.w3.org/2000/svg" p-id="4727" xmlns:xlink="http://www.w3.org/1999/xlink" width="200" height="200"><defs><style type="text/css"></style></defs><path d="M386.306963 703.772878s14.363128-190.723506 192.868819-192.816494h127.227491V86.341499a86.335744 86.335744 0 0 0-84.138107-86.335743H88.762595a87.172939 87.172939 0 0 0-88.219432 86.335743v937.658501h192.868819v-127.410628c-4.107488-215.316112 192.894981-192.816494 192.894981-192.816494z m-256.390996-576.356495h447.376126v127.149005h-447.376126V127.416383z m0 319.965499v-127.149004h447.376126v127.149004h-447.376126z m703.767122 319.965498s-24.64493-198.833834-192.894981-192.816494c0 0-188.76133 4.185975-192.868819 192.816494 0 0-188.787493-12.296303-192.894981 127.410628 0 153.834598 127.227491 127.149004 127.227491 127.149004h512.965129s127.227491-4.185975 127.227491-127.149004c10.25564-155.927585-188.76133-127.410628-188.76133-127.410628z m0 0" fill="" p-id="4728"></path></svg>