<?xml version="1.0" standalone="no"?><!DOCTYPE svg PUBLIC "-//W3C//DTD SVG 1.1//EN" "http://www.w3.org/Graphics/SVG/1.1/DTD/svg11.dtd"><svg t="1596073592876" class="icon" viewBox="0 0 1024 1024" version="1.1" xmlns="http://www.w3.org/2000/svg" p-id="16370" xmlns:xlink="http://www.w3.org/1999/xlink" width="200" height="200"><defs><style type="text/css"></style></defs><path d="M517.638 446.825h171.049c5.83 0 11.114-1.584 14.828-5.83 3.7-3.7 5.83-8.465 5.83-14.828v-24.877h-212.35v24.877c0 6.363 1.584 11.114 5.83 14.828 3.7 4.246 8.997 5.83 14.814 5.83z" p-id="16371"></path><path d="M709.345 340.93c0-5.83-2.116-11.127-5.83-15.36-3.7-3.7-8.997-5.83-14.828-5.83h-171.049c-5.83 0-11.114 2.116-14.828 5.83-4.246 4.233-5.83 9.53-5.83 15.36v25.409h212.364v-25.409z" p-id="16372"></path><path d="M514.949 35.546c-270.308 0-490.223 219.915-490.223 490.223s219.915 490.223 490.223 490.223c270.308 0 490.223-219.915 490.223-490.223s-219.915-490.223-490.223-490.223zM460.977 340.93c0-15.36 6.363-29.668 16.944-40.25 10.581-10.063 24.89-16.412 39.717-16.412h171.049c14.828 0 28.604 6.349 39.717 16.412 10.581 10.581 16.944 24.89 16.944 40.25v85.251c0 23.307-14.295 42.912-34.953 51.91-6.895 3.168-14.308 4.246-21.723 4.246h-171.036c-7.947 0-14.828-1.065-21.709-4.246-21.19-8.997-34.966-28.604-34.966-51.91v-85.251zM426.025 544.802l-42.912 24.89v121.282c0 36.017-27.539 66.205-63.542 66.205h-8.997c-8.997 0-17.476-8.479-17.476-17.476v-1.065c0-9.53 8.479-17.462 17.476-17.462h8.997c7.947 0 14.308-2.649 19.606-8.479 5.297-6.349 8.465-13.244 8.465-21.709v-100.625l-38.653 22.241c-7.947 4.779-19.060 1.584-23.839-6.349l-0.518-1.065c-4.779-7.947-1.584-19.060 6.349-23.825l56.661-32.836v-163.663h-46.066c-9.53 0-17.476-7.413-17.476-17.462v-1.065c0-9.53 7.947-17.476 17.476-17.476h46.066v-51.897c0-9.53 7.413-17.476 17.476-17.476h0.532c10.049 0 17.462 7.947 17.462 17.476v51.897h21.723c9.53 0 17.476 7.947 17.476 17.476v1.065c0 10.049-7.947 17.462-17.476 17.462h-21.723v142.991l24.357-14.295c8.479-4.779 19.060-2.649 23.839 5.83l0.532 1.052c5.311 8.479 2.662 19.060-5.817 24.357zM756.491 741.287c0 9.53-7.947 17.476-17.476 17.476h-111.22c-19.060 0-36.004-2.116-51.897-5.297-29.136-6.363-55.077-17.476-76.786-35.499l-2.649-2.635c-1.584 4.765-3.7 9.53-5.297 14.295-2.116 4.779-4.765 9.53-6.363 13.776-2.635 4.246-5.83 7.947-10.581 9.53-5.297 1.052-10.063 0-14.295-2.116l-1.065-0.532c-7.413-4.765-10.581-14.828-6.881-22.773 7.947-14.828 12.179-27.006 16.412-46.066 5.297-26.474 6.881-56.661 7.413-86.317 0-9.53 7.947-17.476 17.476-17.476h1.052c9.53 0 17.476 7.947 17.476 17.995-0.532 26.474-2.116 54.027-6.363 80.5 1.598 0.518 3.181 2.102 4.779 3.168 11.114 11.66 24.357 21.19 39.717 28.604 9.53 4.765 20.657 8.997 32.822 11.114v-170.53h-113.855c-9.53 0-16.944-8.465-16.944-17.462v-1.065c0-9.53 7.413-17.476 16.944-17.476h268.507c8.997 0 16.944 7.947 16.944 17.476v1.065c0 8.997-7.947 17.462-16.944 17.462h-118.62v59.856h113.869c9.53 0 17.462 7.413 17.462 17.462v0.532c0 10.063-7.933 17.476-17.462 17.476h-113.869v78.902h8.997l111.22-0.532c9.53 0 17.476 7.947 17.476 17.476v1.611z" p-id="16373"></path></svg>