<?xml version="1.0" standalone="no"?><!DOCTYPE svg PUBLIC "-//W3C//DTD SVG 1.1//EN" "http://www.w3.org/Graphics/SVG/1.1/DTD/svg11.dtd"><svg t="1594102360776" class="icon" viewBox="0 0 1024 1024" version="1.1" xmlns="http://www.w3.org/2000/svg" p-id="936" xmlns:xlink="http://www.w3.org/1999/xlink" width="200" height="200"><defs><style type="text/css"></style></defs><path d="M384.1 419.8c0 21.1 16.9 35.7 50.8 44.5v-81c-27.4 4.5-50.8 15.4-50.8 36.5zM511.8 646c26.8-6.3 39.5-18.7 39.5-35.8 0-17.2-14.4-30.2-39.5-38.8V646z" p-id="937"></path><path d="M511.8 63.5C264.1 63.5 63.2 264.3 63.2 512S264 960.6 511.8 960.6c247.7 0 448.6-200.8 448.6-448.6 0-247.7-200.9-448.5-448.6-448.5z m80.6 347c-7-9.9-18-17.5-32.2-22.6v89.6C606 487.7 641 506 664 532.6c19.2 22.6 29.2 49.1 29.2 77.6 0 13.9 0 49.1-28.5 80.9-14.6 16.6-34.5 29.2-59 37.8-13.5 4.6-28.7 7.8-45.4 9.9V789h-76.9v-49.3c-16.8-1.9-32.5-5.3-46.8-10.8-21.2-8.6-38.5-21.2-54.4-35.1-50.4-46.4-43.8-108.1-43.8-114.1l90.9 1.3v-0.7s0 24.5 10.6 40.5c9.1 13.6 23.8 22.2 43.5 26.5v-90.4c-22.6-4.2-42.9-9.9-60-17-22.6-9.3-41.1-21.9-55-37.1-19.9-21.9-29.9-47.8-29.9-76.9 0-40.5 15.9-67.7 29.9-83.6 25.4-28.7 63.9-45.8 115.1-50.7v-56.5h76.9V294c59.2 10.6 91.9 41 109.1 67.5 22.5 35.2 23.9 75.6 23.9 82.2h-90.9v0.7-0.7c-0.2-3.2-0.5-20.5-10.1-33.2z" p-id="938"></path></svg>