<?xml version="1.0" standalone="no"?><!DOCTYPE svg PUBLIC "-//W3C//DTD SVG 1.1//EN" "http://www.w3.org/Graphics/SVG/1.1/DTD/svg11.dtd"><svg t="1610978943323" class="icon" viewBox="0 0 1024 1024" version="1.1" xmlns="http://www.w3.org/2000/svg" p-id="5589" xmlns:xlink="http://www.w3.org/1999/xlink" width="200" height="200"><defs><style type="text/css"></style></defs><path d="M264.1599996875 297.5199996875h123.920000625v185.88h247.839999375v-185.88h123.920000625L512 49.69999999999999z" p-id="5590"></path><path d="M963.02 439.9200003125a42.199999687500004 42.199999687500004 0 0 0-30.520000312500002-12.3400003125h-96.72v100.45999968749999H200.55999968749995v-100.45999968749999H90.8199996875c-11.88 0-21.9400003125 4.1200003125-30.18 12.3400003125a41.0599996875 41.0599996875 0 0 0-12.339999375 30.18v461.019999375c0 11.88 4.1200003125 22.0600003125 12.339999375 30.520000312500002 8.22 8.459999999999999 18.2800003125 12.6799996875 30.18 12.6799996875h841.6800000000001a41.5999996875 41.5999996875 0 0 0 30.520000312500002-12.6799996875 41.5999996875 41.5999996875 0 0 0 12.6799996875-30.520000312500002V470.1000003125c0-11.899999687500001-4.2199996875-21.96-12.6799996875-30.18zM641.2599996875 838.4400003125c-3.6799996875 4.3000003125-8.7199996875 6.7000003125-15.120000000000001 7.179999375l-70.8-0.36v39.080000625c-0.9799996875000001 20.8999996875-12.42 31.3399996875-34.299999375 31.3399996875-10.8199996875 0-19.240000312499998-2.5799999999999996-25.259999999999998-7.74-6.0199996874999995-5.159999999999999-9.2800003125-13.02-9.780000000000001-23.5999996875V846.0000003125h-71.16c-6.6400003125-0.49999968749999996-11.7400003125-3.2599996874999997-15.3-8.300000625000001a36.18 36.18 0 0 1-6.4600003125-16.779999375c0.7399996875-6.1399996875 2.88-11.1799996875 6.4600003125-15.120000000000001 3.5599996875-3.9400003125 8.6599996875-6.1399996875 15.3-6.6400003125H486.0000003125v-23.22l-71.16-0.36c-6.6400003125-0.49999968749999996-11.7400003125-2.82-15.3-7.0000003125a28.939999687500002 28.939999687500002 0 0 1-6.4600003125-15.8599996875c0.7399996875-6.1399996875 2.88-11.1799996875 6.4600003125-15.120000000000001 3.5599996875-3.9400003125 8.6599996875-6.1399996875 15.3-6.6400003125h53.1l-49.400000625-87.01999968749999a55.300000312499996 55.300000312499996 0 0 1-6.999999375-11.239999687500001 30.4000003125 30.4000003125 0 0 1-2.960000625-14.94c1.2199996875-6.8800003125 3.6799996875-12.479999999999999 7.38-16.7800003125s10.579999687499999-7.060000312500001 20.639999999999997-8.2999996875c5.899999687499999 0.49999968749999996 11.1799996875 2.52 15.860000625 6.0799996875 4.68 3.5599996875 8.4799996875 7.4399999999999995 11.4199996875 11.6200003125l56.040000000000006 102.4999996875 61.5799996875-103.2400003125c2.9599996875-4.1800003125 6.7600003125-7.86 11.420000625-11.0599996875 4.68-3.1999996875 9.96-5.159999999999999 15.8599996875-5.899999687499999 3.6799996875 0.24 7.060000312500001 0.7399996875 10.14 1.479999375 3.0799996875 0.7399996875 5.7799996875 1.9600003124999998 8.1199996875 3.680000625 2.34 1.7200003125 4.3000003125 4.1800003125 5.900000625 7.38 1.6000003125 3.1999996875 2.76 7.38 3.4999996875 12.54 0 7.1200003125-2.46 13.8799996875-7.38 20.28l-57.160000312499996 92.919999375h54.200000625c6.4000003125 0.49999968749999996 11.4400003125 2.6999999999999997 15.120000000000001 6.6400003125 3.6799996875 3.9400003125 5.7799996875 8.9800003125 6.2599996875 15.120000000000001-0.49999968749999996 6.4000003125-2.6399999999999997 11.8000003125-6.4600003125 16.2199996875-3.7999996875 4.4200003125-8.9200003125 6.8800003125-15.3 7.38l-70.419999375 0.36v22.5h70.8c6.4000003125 0.49999968749999996 11.4400003125 2.9599996875 15.120000000000001 7.38s5.7799996875 9.7000003125 6.2599996875 15.860000625a26.7 26.7 0 0 1-6.2200003125 16.02z" p-id="5591"></path></svg>