<?xml version="1.0" standalone="no"?><!DOCTYPE svg PUBLIC "-//W3C//DTD SVG 1.1//EN" "http://www.w3.org/Graphics/SVG/1.1/DTD/svg11.dtd"><svg t="1609761368691" class="icon" viewBox="0 0 1024 1024" version="1.1" xmlns="http://www.w3.org/2000/svg" p-id="4027" xmlns:xlink="http://www.w3.org/1999/xlink" width="200" height="200"><defs><style type="text/css"></style></defs><path d="M832.64 687.36c-11.52-2.56-21.12-2.56-32.64 0-37.12-117.12-145.28-200.96-266.88-210.56v-51.2c79.36-11.52 140.16-79.36 140.16-161.28 0-91.52-72.32-163.84-163.84-163.84S346.24 172.8 346.24 263.68c0 81.92 60.8 149.76 140.16 161.28v51.2C364.8 486.4 259.84 568.32 222.08 685.44c-63.36-7.04-121.6 35.2-131.2 98.56-4.48 30.72 2.56 60.8 21.12 86.4s46.72 42.24 77.44 46.72c7.04 0 11.52 2.56 18.56 2.56 56.32 0 107.52-42.24 114.56-98.56 7.04-49.28-16.64-93.44-56.32-117.12C299.52 605.44 385.92 535.68 486.4 526.08v163.84c-46.72 9.6-84.48 46.72-91.52 96-4.48 30.72 2.56 60.8 21.12 86.4s46.72 42.24 77.44 46.72c7.04 0 11.52 2.56 18.56 2.56 56.32 0 107.52-42.24 114.56-98.56 9.6-60.8-32.64-119.04-91.52-131.2V528.64c103.04 9.6 189.44 79.36 222.08 177.92-30.72 16.64-51.2 46.72-56.32 81.92-4.48 30.72 2.56 60.8 21.12 86.4s46.72 42.24 77.44 46.72c7.04 0 11.52 2.56 18.56 2.56 56.32 0 107.52-42.24 114.56-98.56 8.32-70.4-36.48-128.64-99.84-138.24z" p-id="4028"></path></svg>