<?xml version="1.0" standalone="no"?><!DOCTYPE svg PUBLIC "-//W3C//DTD SVG 1.1//EN" "http://www.w3.org/Graphics/SVG/1.1/DTD/svg11.dtd"><svg t="1620713387514" class="icon" viewBox="0 0 1024 1024" version="1.1" xmlns="http://www.w3.org/2000/svg" p-id="3445" xmlns:xlink="http://www.w3.org/1999/xlink" width="200" height="200"><defs><style type="text/css"></style></defs><path d="M727.04 46.731636H320.698182c-47.848727 0-87.04 39.191273-87.04 87.086546v754.594909c0 47.895273 39.191273 87.04 87.04 87.04h406.341818c47.895273 0 87.04-39.144727 87.04-87.04V133.818182c0-47.895273-39.144727-87.04-87.04-87.04z m-283.275636 44.125091h160.256a14.336 14.336 0 1 1 0 28.672H443.764364a14.336 14.336 0 1 1 0-28.672z m80.104727 826.600728a58.042182 58.042182 0 1 1 0-116.13091 58.042182 58.042182 0 0 1 0 116.13091z m232.215273-174.173091H291.700364V162.909091h464.384v580.421818z" p-id="3446"></path></svg>