<?xml version="1.0" standalone="no"?><!DOCTYPE svg PUBLIC "-//W3C//DTD SVG 1.1//EN" "http://www.w3.org/Graphics/SVG/1.1/DTD/svg11.dtd"><svg t="1610978962520" class="icon" viewBox="0 0 1024 1024" version="1.1" xmlns="http://www.w3.org/2000/svg" p-id="6351" xmlns:xlink="http://www.w3.org/1999/xlink" width="200" height="200"><defs><style type="text/css"></style></defs><path d="M512 0c-282.8 0-512 229.2-512 512s229.2 512 512 512 512-229.2 512-512-229.2-512-512-512z m317.2 714.9c-2.5 14.4-5.8 27.4-9.9 39-9.9 43.7-44.1 64.3-102.6 61.8h-80.4c-61 2.5-90.7-25.1-89-82.9v-188l-90.3 2.5c9.9 141-65.1 236.2-225.1 285.7-2.5-4.9-6-10.7-10.5-17.3-4.5-6.6-10.1-14.4-16.7-23.5-4.1-5.8-7.4-10.5-9.9-14.2-2.5-3.7-4.5-7.2-6.2-10.5C266.9 742.7 318 715.9 342 687c27.2-27.2 40.8-71.7 40.8-133.6H353.1c-21.4 1.6-38.5 3.3-51.3 4.9-12.8 1.6-22.5 3.3-29.1 4.9l-35.9-68c24.7-10.7 46.2-25.1 64.3-43.3 40.4-32.2 80-69.7 118.7-112.5H197.3v-68h286.9c-0.8-3.3-3.3-11.1-7.4-23.5-4.1-11.5-7.4-21.4-9.9-29.7-2.5-8.2-4.5-14.4-6.2-18.6l81.6-8.7c0.8 4.9 2.7 11.5 5.6 19.8 2.9 8.2 6.4 19 10.5 32.2l4.9 17.3c0.8 4.9 1.6 8.7 2.5 11.1h260.9v68H516.3c-61 61-113.8 110.1-158.3 147.2l291.9-7.4c-7.4-9.9-20.2-22.7-38.3-38.3-8.2-8.2-15.5-15-21.6-20.4-6.2-5.4-11.3-10.1-15.5-14.2l48.2-37.1c31.3 26.4 62.9 53.6 94.6 81.6 31.7 28 63.7 56.5 95.8 85.3l-55.7 49.5-43.3-43.3-94 2.5v167c-2.5 30.5 12.8 44.5 45.8 42H703c32.2 0 50.3-12.4 54.4-37.1 2.5-15.7 4.5-29.7 6.2-42 1.6-12.4 2.9-23.5 3.7-33.4 11.5 4.9 22.9 9.7 34 14.2 11.1 4.5 22.5 8.9 34 13-1.5 16.6-3.6 32-6.1 46.5z" p-id="6352"></path></svg>