<?xml version="1.0" standalone="no"?><!DOCTYPE svg PUBLIC "-//W3C//DTD SVG 1.1//EN" "http://www.w3.org/Graphics/SVG/1.1/DTD/svg11.dtd"><svg t="1594262936481" class="icon" viewBox="0 0 1024 1024" version="1.1" xmlns="http://www.w3.org/2000/svg" p-id="1064" xmlns:xlink="http://www.w3.org/1999/xlink" width="200" height="200"><defs><style type="text/css"></style></defs><path d="M512.2 64c-247.4 0-448 200.6-448 448s200.6 448 448 448 448-200.6 448-448-200.6-448-448-448z m43.7 450.9v62.6h139.5v81.7H555.9V766h-81.7V659.1h-71.7v32.2L280 618.6l122.5-72.5v31.3h71.7v-62.6H329v-81.7h137.6l-116-115.8 57.7-57.7 106 106 107.4-107.4 57.7 57.7-117.3 117.3h59.7V401l122.5 72.7-122.5 72.5v-31.3h-65.9z" p-id="1065"></path></svg>