<?xml version="1.0" standalone="no"?><!DOCTYPE svg PUBLIC "-//W3C//DTD SVG 1.1//EN" "http://www.w3.org/Graphics/SVG/1.1/DTD/svg11.dtd"><svg t="1610445078264" class="icon" viewBox="0 0 1024 1024" version="1.1" xmlns="http://www.w3.org/2000/svg" p-id="4101" xmlns:xlink="http://www.w3.org/1999/xlink" width="200" height="200"><defs><style type="text/css"></style></defs><path d="M528.888694 786.79658c0.006193 0.020643 0.016514 0.040253 0.023739 0.059863-0.033028-0.072249-0.06296-0.146562-0.095988-0.219843C528.841216 786.690271 528.863923 786.743942 528.888694 786.79658c-0.040253-0.089795-0.079474-0.181654-0.120759-0.271449-1.564704-3.477236-3.04271-7.001949-4.399957-10.586526-0.825702-2.177788-1.610118-4.365897-2.363571-6.574649-0.24771-0.73281-0.495421-1.475942-0.73281-2.219073-0.206425-0.619276-0.40253-1.238552-0.598634-1.86815-0.113534-0.361244-0.227068-0.73281-0.340602-1.104376-0.227068-0.743131-0.454136-1.486263-0.670883-2.239716-0.144498-0.495421-0.288996-1.001163-0.433493-1.506905-0.185783-0.629597-0.361244-1.269516-0.536706-1.909435-0.371566-1.362408-0.73281-2.735136-1.073412-4.118187-0.144498-0.598634-0.299317-1.197267-0.433493-1.795901-0.010321-0.041285-0.020643-0.092891-0.030964-0.134177-0.185783-0.763774-0.361244-1.537869-0.536706-2.311964-0.16514-0.73281-0.330281-1.46562-0.474778-2.19843-0.103213-0.454136-0.196104-0.908272-0.288996-1.372729-0.134177-0.639919-0.258032-1.290159-0.392208-1.940399-0.113534-0.588312-0.216747-1.176625-0.330281-1.764937-0.134177-0.763774-0.278674-1.537869-0.40253-2.301643-0.092891-0.536706-0.185783-1.073412-0.268353-1.620439-0.08257-0.495421-0.16514-0.990842-0.237389-1.486263-0.092891-0.577991-0.175462-1.166303-0.258032-1.754616-0.123855-0.784416-0.227068-1.579154-0.330281-2.373892-0.216747-1.651403-0.412851-3.302806-0.588312-4.974852-0.061928-0.536706-0.113534-1.083733-0.16514-1.620439-0.123855-1.248874-0.227068-2.497747-0.319959-3.746621-0.103213-1.269516-0.185783-2.549354-0.258032-3.829191-0.020643-0.340602-0.030964-0.670883-0.051606-1.011484-0.08257-1.579154-0.144498-3.158309-0.185783-4.737463-0.041285-1.672046-0.061928-3.354413-0.061928-5.047101l-23.780205 0 0-95.131143-166.48208 0 0-47.560411 166.48208 0 0-71.350937-166.48208 0 0-47.560411 95.131143 0-95.131143-118.911348 71.350937 0 95.131143 118.911348 47.560411 0 95.131143-118.911348 71.340616 0-95.131143 118.911348 95.131143 0 0 47.560411-166.471759 0 0 71.350937 40.665803 0c1.568833-1.38305 3.16863-2.735136 4.789069-4.06658 2.157145-1.775258 4.355576-3.509232 6.58497-5.191599 0.557349-0.412851 1.114697-0.836023 1.682367-1.248874 0.598634-0.443815 1.197267-0.877308 1.795901-1.310801 1.100247-0.789577 2.213912-1.561608 3.330674-2.328478 0.341634-0.234293 0.682236-0.47065 1.025934-0.702878 2.444077-1.6545 4.927374-3.254296 7.449892-4.797326 0.299317-0.183719 0.60173-0.363309 0.902079-0.544963 1.014581-0.613083 2.036387-1.216878 3.063353-1.811383 0.300349-0.173397 0.599666-0.348859 0.901047-0.521224 2.589607-1.481102 5.218434-2.903373 7.882354-4.264749 0.318927-0.163076 0.639919-0.323056 0.96091-0.484068 1.050705-0.529481 2.107603-1.049673 3.16863-1.560576 0.329249-0.157915 0.656433-0.317895 0.986713-0.473746 2.707269-1.282934 5.448598-2.504972 8.223988-3.661986 0.319959-0.134177 0.641983-0.264225 0.964007-0.396337 1.127083-0.462393 2.258294-0.915497 3.395698-1.357247 0.303445-0.117662 0.606891-0.237389 0.911368-0.35402 2.880666-1.101279 5.793329-2.136503 8.739019-3.099477 0.198168-0.065024 0.397369-0.127984 0.596569-0.191976 6.16283-1.994069 12.460869-3.686758 18.879666-5.050197 1.424335-0.299317 2.84867-0.588312 4.273006-0.856665 0.712168-0.134177 1.434656-0.258032 2.146824-0.392208 1.352086-0.237389 2.704173-0.454136 4.056259-0.670883 0.216747-0.041285 0.443815-0.072249 0.670883-0.103213 2.755779-0.412851 5.542522-0.763774 8.339586-1.063091 0.73281-0.072249 1.46562-0.144498 2.19843-0.216747 0.608955-0.061928 1.21791-0.113534 1.826865-0.16514 0.866987-0.072249 1.733973-0.144498 2.60096-0.196104 0.743131-0.051606 1.486263-0.103213 2.229394-0.144498 0.536706-0.030964 1.083733-0.061928 1.620439-0.092891 1.537869-0.072249 3.08606-0.134177 4.63425-0.175462 0.154819 0 0.309638-0.010321 0.464457-0.010321 1.496584-0.030964 3.003489-0.051606 4.510395-0.051606 1.692688 0 3.375055 0.020643 5.047101 0.061928 1.589476 0.041285 3.16863 0.103213 4.737463 0.185783 0.350923 0.020643 0.691525 0.041285 1.042448 0.061928 0.577991 0.030964 1.155982 0.061928 1.733973 0.103213 1.940399 0.123855 3.880797 0.278674 5.810875 0.464457 0.547027 0.051606 1.083733 0.103213 1.620439 0.16514 2.219073 0.227068 4.417503 0.495421 6.605613 0.805059 0.784416 0.113534 1.568833 0.227068 2.353249 0.350923 0.588312 0.08257 1.176625 0.175462 1.764937 0.278674 0.505742 0.072249 0.990842 0.154819 1.486263 0.24771 0.712168 0.113534 1.424335 0.237389 2.136503 0.371566 0.588312 0.113534 1.176625 0.216747 1.754616 0.330281 0.743131 0.144498 1.475942 0.288996 2.219073 0.443815 0.516063 0.103213 1.021806 0.206425 1.527548 0.319959 0.598634 0.123855 1.197267 0.24771 1.78558 0.381887 1.981684 0.443815 3.942725 0.918593 5.893445 1.424335 0.763774 0.185783 1.517227 0.392208 2.270679 0.598634 1.517227 0.40253 3.013811 0.825702 4.510395 1.279837 0.753453 0.216747 1.496584 0.443815 2.239716 0.681204 1.486263 0.454136 2.972526 0.939236 4.448467 1.444978 1.788676 0.603794 3.559806 1.246809 5.323711 1.905306 0.816412 0.306542 1.631793 0.619276 2.442012 0.930979 0.645079 0.249775 1.292223 0.497485 1.934206 0.753453 0.981553 0.395305 1.958977 0.802995 2.938465 1.207589 3.438015 1.440849 6.817199 2.995232 10.149937 4.628057 39.544913 19.469011 71.389126 52.235946 89.620617 92.476512 10.919903-35.381312 16.854633-72.91977 16.854633-111.903206 0-210.233942-170.280307-380.514249-380.503928-380.514249-210.233942 0-380.514249 170.280307-380.514249 380.514249 0 210.223621 170.280307 380.503928 380.514249 380.503928 38.983436 0 76.532215-5.93473 111.903206-16.854633C581.867771 862.709519 547.952079 828.82479 528.888694 786.79658z" p-id="4102"></path><path d="M844.946614 708.375573c0-78.740966-63.950587-142.691553-142.691553-142.691553s-142.691553 63.950587-142.691553 142.691553 63.950587 142.691553 142.691553 142.691553S844.946614 787.11654 844.946614 708.375573zM607.123918 708.375573l95.131143-95.131143 0 71.350937 95.131143 0 0 47.560411-95.131143 0 0 71.350937L607.123918 708.375573z" p-id="4103"></path></svg>