<?xml version="1.0" standalone="no"?><!DOCTYPE svg PUBLIC "-//W3C//DTD SVG 1.1//EN" "http://www.w3.org/Graphics/SVG/1.1/DTD/svg11.dtd"><svg t="1621859121334" class="icon" viewBox="0 0 1024 1024" version="1.1" xmlns="http://www.w3.org/2000/svg" p-id="5775" xmlns:xlink="http://www.w3.org/1999/xlink" width="200" height="200"><defs><style type="text/css"></style></defs><path d="M854.56 0H165.184C56.16 0 32 30.56 32 146.144v57.216c72.224 37.6 163.328 85.44 264.96 117.792C325.28 231.936 409.888 167.2 509.856 167.2c99.84 0 184.352 64.576 212.736 153.568 102.528-33.664 192.32-84.224 265.12-124.096v-50.56C987.744 30.56 963.552 0 854.56 0z" p-id="5776"></path><path d="M509.856 606.048c-118.496 0-215.136-91.008-222.304-205.824C195.52 371.072 108.544 330.432 32 294.784v604.448C32 1014.784 56.16 1024 165.184 1024h689.344c109.024 0 133.184-9.216 133.184-124.8V289.056c-77.728 37.92-163.616 80.416-255.552 110.56-6.816 115.104-103.584 206.432-222.304 206.432z" p-id="5777"></path><path d="M566.048 238.944l-45.216 100.64c-3.744 8.48-6.496 14.976-8.256 19.456h-0.8L457.12 238.912H390.4l74.752 134.016H408.48v38.176h69.12v32.96h-69.12v38.176h69.12v55.36h63.328v-55.328h66.912v-38.176h-66.912v-32.96h66.912V372.96h-55.488l76.96-134.016h-63.264z" p-id="5778"></path></svg>