<?xml version="1.0" standalone="no"?><!DOCTYPE svg PUBLIC "-//W3C//DTD SVG 1.1//EN" "http://www.w3.org/Graphics/SVG/1.1/DTD/svg11.dtd"><svg t="1596510203603" class="icon" viewBox="0 0 1024 1024" version="1.1" xmlns="http://www.w3.org/2000/svg" p-id="24215" xmlns:xlink="http://www.w3.org/1999/xlink" width="200" height="200"><defs><style type="text/css"></style></defs><path d="M511.706311 64.021106C264.433578 64.021106 63.981197 264.473487 63.981197 511.745197s200.452381 447.725114 447.725114 447.725114 447.725114-200.452381 447.725114-447.725114S758.979044 64.021106 511.706311 64.021106zM361.994568 735.607754l-85.551468 0L276.4431 602.750887l85.551468 0L361.994568 735.607754zM490.318188 735.607754l-85.548398 0L404.76979 425.611467l85.548398 0L490.318188 735.607754zM618.645902 735.607754 533.095457 735.607754 533.095457 558.468334l85.550445 0L618.645902 735.607754zM746.970546 735.607754 661.418055 735.607754 661.418055 292.756647l85.551468 0L746.969523 735.607754z" p-id="24216"></path></svg>