<?xml version="1.0" standalone="no"?><!DOCTYPE svg PUBLIC "-//W3C//DTD SVG 1.1//EN" "http://www.w3.org/Graphics/SVG/1.1/DTD/svg11.dtd"><svg t="1590118363970" class="icon" viewBox="0 0 1024 1024" version="1.1" xmlns="http://www.w3.org/2000/svg" p-id="799" xmlns:xlink="http://www.w3.org/1999/xlink" width="200" height="200"><defs><style type="text/css"></style></defs><path d="M1021.058745 651.35723c1.442188 8.746172 1.07001 19.399755-1.116532 31.867703a192.136659 192.136659 0 0 1-10.979238 37.915588c-5.117441 12.793603-11.304893 24.377629-18.608877 34.612512-7.350507 10.234883-15.398846 17.585389-24.191541 22.004997a53.035301 53.035301 0 0 1-23.028486 6.606152c-6.606151 0-13.956658-1.48871-21.958475-4.419609a228.051792 228.051792 0 0 0-27.448094-6.047885 127.656899 127.656899 0 0 0-33.495979-1.116533 160.966789 160.966789 0 0 0-34.007724 7.164418 66.526737 66.526737 0 0 0-29.076371 18.701922 108.303666 108.303666 0 0 0-30.75117 62.665395c-2.930898 23.447185 0.372178 45.777838 9.862705 67.03848 7.350507 14.654491 6.233974 29.308982-3.256553 43.963473a82.111671 82.111671 0 0 1-20.888465 18.143656 230.052247 230.052247 0 0 1-31.262914 17.073645c-11.351415 5.117441-23.261097 9.11835-35.682522 12.09577a145.754032 145.754032 0 0 1-32.937713 4.373086 27.913316 27.913316 0 0 1-18.6554-7.676162 41.637363 41.637363 0 0 1-12.09577-16.515379h-1.070011a135.937849 135.937849 0 0 0-41.172141-58.804052 101.092726 101.092726 0 0 0-67.503702-24.749807c-24.889373 0-47.359593 8.234428-67.503703 24.749807-20.14411 16.468856-34.193812 35.729045-42.242152 57.68752a37.403844 37.403844 0 0 1-16.468856 19.260188c-7.350507 4.047431-15.352324 6.047885-24.191541 6.047885-10.234883 0-21.725864-1.860888-34.56599-5.489619a321.933579 321.933579 0 0 1-38.380809-13.770569 183.762664 183.762664 0 0 1-34.612512-19.213666 95.603108 95.603108 0 0 1-23.028486-22.004997 33.589024 33.589024 0 0 1-6.047885-18.143656c-0.372178-6.978329 2.372632-16.654945 8.234428-29.122893 8.048339-16.841034 11.165326-36.101222 9.304439-57.68752-1.814366-21.63282-11.165326-41.590841-27.959838-59.920585a71.365045 71.365045 0 0 0-37.3108-21.446731 151.336695 151.336695 0 0 0-41.730407-3.861342c-15.352324 0.744355-31.076825 3.675253-47.173504 8.839216a44.661306 44.661306 0 0 1-30.75117-2.233065c-8.048339-2.930898-15.538413-9.723138-22.516742-20.330198a227.819181 227.819181 0 0 1-31.262914-74.761165c-2.930898-13.537958-3.675253-24.749807-2.186543-33.49598 2.186543-16.143201 9.490527-26.424606 21.911953-30.797692 21.958475-8.839217 41.730408-23.261097 59.315797-43.451728 17.538867-20.14411 26.331561-42.660851 26.331561-67.596747 0-25.633729-8.792695-48.010904-26.331561-67.085003a162.548544 162.548544 0 0 0-59.315797-41.730408c-6.559629-2.233065-12.09577-7.536595-16.422334-15.957112A55.36141 55.36141 0 0 1 0.222255 358.918722c0-9.53705 1.442188-20.190632 4.373086-31.914224a219.584753 219.584753 0 0 1 11.537504-34.054246c4.745264-11.02576 10.234883-21.074554 16.468856-30.239426 6.233974-9.164872 13.026214-15.957112 20.330199-20.330198a25.401118 25.401118 0 0 1 16.9806-4.419609c5.489619 0.744355 11.537504 2.186543 18.143656 4.419609 21.911953 8.792695 44.800872 11.537504 68.573713 8.234428 23.772841-3.303076 44.847394-13.724047 63.130616-31.355958a78.157285 78.157285 0 0 0 19.213666-32.425969c4.000909-12.793603 6.559629-25.44764 7.676162-37.915588a176.319113 176.319113 0 0 0 0-34.054245 433.075099 433.075099 0 0 0-2.744809-22.004998 117.794194 117.794194 0 0 1-3.861342-15.352324 23.865885 23.865885 0 0 1 1.674799-15.445368c4.373086-10.234883 12.235337-19.213666 23.586752-26.93635 11.351415-7.676162 23.586752-14.096225 36.752533-19.213666 13.212303-5.117441 26.005906-8.978783 38.427331-11.537504 12.467948-2.558721 22.330653-3.861342 29.634638-3.861342 9.53705 0 17.027123 3.116987 22.516741 9.304439 5.489619 6.280496 9.304439 12.700559 11.537504 19.260188 8.048339 19.818454 21.21412 37.217755 39.543865 52.244423 18.2367 15.026668 39.822998 22.516742 64.712371 22.516742 25.587206 0 48.290037-7.117896 68.061969-21.400209 19.771932-14.328836 33.682068-32.472491 41.730407-54.430967 2.930898-5.861796 7.443551-11.909682 13.724047-18.143655 6.187452-6.233974 12.607514-9.350961 19.213666-9.350961 10.234883 0 21.400209 1.48871 33.49598 4.419609 12.049248 2.930898 23.912407 6.978329 35.636 12.09577a139.56658 139.56658 0 0 1 32.379446 19.771932c9.862705 8.048339 17.724956 16.841034 23.586752 26.378084a25.261551 25.261551 0 0 1 3.303076 19.213666c-1.442188 6.978329-2.930898 11.909682-4.373086 14.887102a116.770706 116.770706 0 0 0-8.792695 66.991958c3.675253 23.493708 14.282313 44.009995 31.821181 61.595384 17.585389 17.585389 39.171687 27.308528 64.758893 29.122893 25.587206 1.860888 49.406569-2.32611 71.365045-12.607514a33.821635 33.821635 0 0 1 21.400209-4.419609c8.373995 0.744355 15.538413 4.047431 21.400209 9.909228 10.979238 10.234883 20.655854 25.819817 29.076371 46.708282 8.420517 20.934987 14.096225 41.963018 17.027122 63.223661 1.48871 12.467948-0.558266 22.144564-6.047885 29.122893a40.93953 40.93953 0 0 1-16.9806 13.770569 128.866476 128.866476 0 0 0-58.152742 42.335196c-16.143201 20.14411-24.191541 43.033029-24.191541 68.666758 0 24.935896 6.745718 46.708282 20.283677 65.410204 13.537958 18.701922 31.309436 32.100313 53.267911 40.148653 5.117441 2.930898 9.490527 5.861796 13.165781 8.792694 8.048339 6.606151 13.537958 15.026668 16.468856 25.261551zM510.570717 750.216892c32.937713 0 64.06106-6.233974 93.32352-18.701922a234.285766 234.285766 0 0 0 76.296397-51.639635c21.586298-22.004998 38.613421-47.452637 51.034846-76.435964a232.750534 232.750534 0 0 0 18.6554-92.858298c0-33.030757-6.233974-63.968016-18.6554-92.90482a240.705829 240.705829 0 0 0-51.034846-75.831176 238.658852 238.658852 0 0 0-76.296397-51.174412 235.727954 235.727954 0 0 0-93.32352-18.6554c-32.891191 0-63.828449 6.233974-92.718732 18.6554a240.333651 240.333651 0 0 0-75.738131 51.174412 240.705829 240.705829 0 0 0-51.034846 75.831176 232.750534 232.750534 0 0 0-18.701922 92.90482c0 32.937713 6.233974 63.921494 18.701922 92.858298 12.421426 28.983327 29.448548 54.430966 51.034846 76.435964a235.867521 235.867521 0 0 0 75.738131 51.639635 231.82009 231.82009 0 0 0 92.718732 18.701922z" p-id="800"></path></svg>