<?xml version="1.0" standalone="no"?><!DOCTYPE svg PUBLIC "-//W3C//DTD SVG 1.1//EN" "http://www.w3.org/Graphics/SVG/1.1/DTD/svg11.dtd"><svg t="1624881362081" class="icon" viewBox="0 0 1024 1024" version="1.1" xmlns="http://www.w3.org/2000/svg" p-id="1221" xmlns:xlink="http://www.w3.org/1999/xlink" width="200" height="200"><defs><style type="text/css"></style></defs><path d="M855.04 171.008c-6.144-15.872-21.504-26.112-38.4-26.112h-609.28c-16.896 0-32.256 10.24-38.4 26.112l-40.96 107.008v102.4c0 42.496 34.304 76.8 76.8 76.8s76.8-34.304 76.8-76.8c0 42.496 34.304 76.8 76.8 76.8s76.8-34.304 76.8-76.8c0 42.496 34.304 76.8 76.8 76.8s76.8-34.304 76.8-76.8c0 42.496 34.304 76.8 76.8 76.8s76.8-34.304 76.8-76.8c0 42.496 34.304 76.8 76.8 76.8s76.8-34.304 76.8-76.8v-102.4l-40.96-107.008zM192 470.016v368.64c0 22.528 18.432 40.96 40.96 40.96h558.08c22.528 0 40.96-18.432 40.96-40.96v-368.64h-640z m273.92 327.68H286.72v-256h179.2v256z m271.36-128h-204.8v-128h204.8v128z" p-id="1222"></path></svg>