<?xml version="1.0" standalone="no"?><!DOCTYPE svg PUBLIC "-//W3C//DTD SVG 1.1//EN" "http://www.w3.org/Graphics/SVG/1.1/DTD/svg11.dtd"><svg t="1634568891293" class="icon" viewBox="0 0 1040 1024" version="1.1" xmlns="http://www.w3.org/2000/svg" p-id="1935" xmlns:xlink="http://www.w3.org/1999/xlink" width="48.75" height="48"><defs><style type="text/css"></style></defs><path d="M174.107004 756.14277C204.0436 746.051721 233.701274 734.997906 264.023319 726.254403 281.066052 721.354604 297.998191 725.759921 313.373894 735.567705 344.665258 755.511567 376.973101 773.556909 411.949006 786.254635 441.967733 797.159452 470.45198 794.430792 497.123637 776.355977 500.476399 774.079228 503.353448 771.05175 507.059945 767.843342 491.980242 759.422401 477.651921 751.727629 463.636675 743.477792 446.762271 733.552117 429.887055 723.600244 413.50788 712.899278 383.559086 693.288618 371.924847 659.459946 383.441988 627.301381 394.167899 597.312317 426.557875 575.642679 455.112868 580.303423 464.600299 581.8802 474.038938 585.175387 482.927865 589.060024 505.748278 599.020082 528.20601 609.773444 550.834512 620.184596 572.736027 630.265002 590.127616 627.015661 607.333798 609.737422 651.326299 565.534436 695.279766 521.300343 739.31943 477.118645 752.615819 463.765157 753.417621 443.985851 740.993779 431.166141 728.367454 418.146674 708.720089 418.822903 694.844711 432.653682 680.636742 446.845498 666.464552 461.091347 651.961396 474.977797 649.07215 477.792418 645.946266 483.945615 640.880936 479.279959 639.809972 478.258247 642.489416 471.222511 645.046883 468.419351 658.346526 453.679021 672.10643 439.373407 685.815918 425.012123 702.230871 407.835401 698.80899 382.139494 678.725756 372.362818 665.970135 366.137577 651.728012 369.520361 640.611771 380.72809 623.145368 398.259302 605.481363 415.641513 587.780762 432.922208 585.50303 435.158024 582.364951 436.571065 578.779616 438.935413 577.233753 430.962289 581.59893 427.213555 584.963077 423.514758 598.060235 409.223062 611.430625 395.1958 624.789628 381.153803 630.804759 374.867977 634.936553 367.869084 635.174003 358.877521 635.504969 345.312815 628.446523 333.860302 616.434965 328.678876 604.209541 323.404939 590.803371 326.446335 581.268776 336.355637 566.154105 351.93839 550.906883 367.431908 535.664542 382.909052 533.207911 385.382283 530.626861 387.852241 527.697769 389.672985 526.082784 390.689786 523.672502 390.34676 521.61921 390.61938 521.642792 388.496543 521.020706 386.021672 521.858286 384.300809 523.165075 381.627 525.32652 379.30113 527.401768 377.0997 539.249062 364.556705 551.475301 352.306797 563.097342 339.502644 573.306067 328.309651 573.882615 311.842725 565.28237 300.035723 554.636964 285.437023 533.939777 282.763214 520.276641 294.701204 514.163928 300.073382 508.724533 306.262602 503.285138 312.357674 502.175954 313.602067 502.031207 316.171084 502.210921 318.019664 505.477485 352.378842 488.179413 381.184914 456.81649 394.075029 454.289925 395.082005 451.727577 398.01861 450.807866 400.670314 443.456673 421.76524 429.912262 436.770005 409.331361 445.489765 406.808047 446.571241 404.281481 449.460363 403.269065 452.058852 395.738158 471.730093 382.594647 485.595256 363.240029 493.746034 360.670364 494.827509 357.882767 497.570088 356.963867 500.175127 343.686995 537.438982 306.485402 553.666855 269.075636 544.698215 242.81057 538.414847 224.589533 522.316326 214.185642 497.225422 213.923796 496.589309 213.582259 495.979392 213.215512 495.373569 212.965864 494.992883 212.624327 494.65968 211.965646 493.950703 199.480003 498.307718 186.782931 502.736776 174.109442 507.196126 174.107004 590.180796 174.107004 673.167105 174.107004 756.14277L174.107004 756.14277 174.107004 756.14277ZM889.439903 514.239228C864.483252 509.670176 839.665658 504.537053 814.614678 500.816972 797.043375 498.179184 781.834374 504.229229 769.005565 517.044845 720.90892 565.075158 672.552869 612.83285 624.455411 660.844333 609.812387 675.456952 592.619214 678.928973 574.552682 670.498208 546.979202 657.603181 520.14572 643.013485 493.015426 629.093471 484.73395 624.855984 476.565506 620.367981 468.260447 616.158328 448.104027 605.955121 424.376912 613.599134 413.778671 633.629776 403.429264 653.154474 410.414524 677.382487 429.791913 688.388821 486.478232 720.614518 543.214156 752.740336 599.933815 784.899721 600.136298 785.020066 600.334716 785.119126 600.537198 785.256665 624.785566 801.193907 647.501077 798.117308 669.024459 779.764961 693.167112 759.158787 717.41629 738.665592 741.50202 717.988193 753.322479 707.824282 766.680671 704.547925 781.729472 707.848843 815.579928 715.268539 849.402737 722.751274 883.232861 730.159509 885.238176 730.599958 887.348391 730.617969 889.43909 730.839013 889.439903 658.629805 889.439903 586.422237 889.439903 514.239228L889.439903 514.239228 889.439903 514.239228ZM386.758157 334.429285C379.663117 332.539772 373.706536 330.533187 367.629603 329.430426 357.820966 327.59822 348.017206 327.303494 339.80241 334.464488 330.706935 342.41387 327.32002 352.251127 331.096452 364.120349 332.914734 369.79462 334.838729 375.473803 337.04246 382.173061 329.785596 380.309745 323.613521 378.516017 317.360941 377.234783 294.89589 372.576495 277.689706 392.083182 284.912418 413.918192 286.597336 419.025936 288.4514 424.025614 290.694163 430.453889 286.278568 429.337211 282.763982 428.731387 279.457571 427.554945 247.620562 416.315288 231.634156 442.961682 236.980035 466.496274 242.264111 489.791811 261.473983 509.978002 283.495848 513.149568 309.076212 516.841814 329.917333 495.64701 325.83433 470.08291 325.549715 468.256436 325.245583 466.425867 324.782882 463.550662 338.966456 465.547423 352.134361 464.429106 362.581351 453.949185 373.222691 443.273599 373.790295 429.977419 371.396277 415.380356 386.510947 416.793397 400.444874 415.746306 410.747116 403.475932 420.862325 391.405314 421.212809 377.599915 416.917564 362.797365 422.478125 363.332781 427.271037 364.318471 432.036302 364.185027 457.430446 363.511253 473.829949 340.381909 467.105721 314.993007 459.952946 288.003586 422.00729 268.496899 396.200861 278.5683 381.176454 284.426774 374.074908 298.786419 378.937755 314.378179 380.952828 320.805633 383.818492 326.960468 386.758157 334.429285L386.758157 334.429285 386.758157 334.429285Z" p-id="1936"></path></svg>