<?xml version="1.0" standalone="no"?><!DOCTYPE svg PUBLIC "-//W3C//DTD SVG 1.1//EN" "http://www.w3.org/Graphics/SVG/1.1/DTD/svg11.dtd"><svg t="1609761310549" class="icon" viewBox="0 0 1079 1024" version="1.1" xmlns="http://www.w3.org/2000/svg" p-id="3730" xmlns:xlink="http://www.w3.org/1999/xlink" width="210.7421875" height="200"><defs><style type="text/css"></style></defs><path d="M932.136 152.836h-12.91v871.048h12.91c81.328 0 147.255-61.829 147.255-138.13V290.85c0-76.186-65.927-138.015-147.255-138.015z m-771.983 0h-12.898C65.928 152.836 0 214.665 0 290.85v594.902c0 76.302 65.928 138.131 147.255 138.131h12.91V152.836z m62.13 871.048h634.813V152.836H766.38C764.063 96.912 726.792 0 597.658 0H481.699C352.564 0 315.363 96.912 313.012 152.836h-90.729v871.048zM481.641 60.787h116.017c89.339 0 102.11 67.734 103.835 92.049h-323.63c1.494-21.883 13.385-92.049 103.836-92.049z m-37.815 637.047a163.14 163.14 0 0 0 37.769 69.934 92.338 92.338 0 0 0 62.165 19.915 90.775 90.775 0 0 0 63.16-22.925 74.53 74.53 0 0 0 25.068-58.24 66.321 66.321 0 0 0-20.923-51.177 195.676 195.676 0 0 0-31.435-21.072 523.023 523.023 0 0 0-53.053-25.589q-66.622-28.135-87.568-51.524a117.869 117.869 0 0 1-33.3-84.06 115.785 115.785 0 0 1 7.92-43.187 116.943 116.943 0 0 1 22.821-36.241 142.901 142.901 0 0 1 36.913-28.136 209.57 209.57 0 0 1 49.787-18.641v-63.103h60.092v63.103a145.738 145.738 0 0 1 66.252 25.125 194.298 194.298 0 0 1 49.128 58.24l-66.982 35.083c-20.135-34.273-46.476-51.524-78.953-51.524a74.855 74.855 0 0 0-50.135 16.788 52.416 52.416 0 0 0-19.915 41.799 50.204 50.204 0 0 0 16.14 38.093 238.84 238.84 0 0 0 63.856 35.083 656.986 656.986 0 0 1 68.695 33.346 179.744 179.744 0 0 1 40.837 29.988 130.536 130.536 0 0 1 38.811 95.06 146.167 146.167 0 0 1-35.013 96.564 170.806 170.806 0 0 1-92.72 56.04v66.691H523.15v-64.723q-67.282-10.421-102.655-43.535t-52.207-102.354z" p-id="3731"></path></svg>