<?xml version="1.0" standalone="no"?><!DOCTYPE svg PUBLIC "-//W3C//DTD SVG 1.1//EN" "http://www.w3.org/Graphics/SVG/1.1/DTD/svg11.dtd"><svg t="1610096402339" class="icon" viewBox="0 0 1024 1024" version="1.1" xmlns="http://www.w3.org/2000/svg" p-id="1722" xmlns:xlink="http://www.w3.org/1999/xlink" width="200" height="200"><defs><style type="text/css"></style></defs><path d="M751.104 644.096l-116.736 129.792a34.56 34.56 0 0 1-25.6 11.264 33.792 33.792 0 0 1-25.6-9.728 36.608 36.608 0 0 1-1.536-51.2l61.952-69.12H300.032a36.352 36.352 0 0 1 0-72.448h425.216a36.352 36.352 0 0 1 25.6 60.672M271.36 378.112L387.84 248.32a34.816 34.816 0 0 1 25.6-11.52 34.304 34.304 0 0 1 25.6 9.472 36.608 36.608 0 0 1 2.56 51.2l-62.208 69.12h342.784c19.712 0.448 35.456 16.64 35.328 36.352a35.584 35.584 0 0 1-35.328 35.84h-424.96a36.096 36.096 0 0 1-25.6-60.416M512 0a512 512 0 1 0 0 1024A512 512 0 0 0 512 0" p-id="1723"></path></svg>