<?xml version="1.0" standalone="no"?><!DOCTYPE svg PUBLIC "-//W3C//DTD SVG 1.1//EN" "http://www.w3.org/Graphics/SVG/1.1/DTD/svg11.dtd"><svg t="1610436720143" class="icon" viewBox="0 0 1024 1024" version="1.1" xmlns="http://www.w3.org/2000/svg" p-id="2464" xmlns:xlink="http://www.w3.org/1999/xlink" width="200" height="200"><defs><style type="text/css"></style></defs><path d="M977.92 515.584c-33.28 0.512-196.096-93.696-201.216-98.816-12.288-11.776-7.68-26.624 5.12-28.672 12.8-2.048 83.456-10.24 83.456-10.24-43.52-116.224-140.8-209.408-268.288-239.616-203.776-47.616-414.208 89.088-460.8 296.96-0.512 1.536-3.072 23.04-19.968 22.528-11.264-0.512-48.64-15.36-62.464-21.504-15.36-7.168-19.456-5.12-14.848-28.672C91.648 142.848 363.008-35.84 623.104 25.6c216.064 50.688 366.08 238.08 382.464 451.584 2.56 28.16-11.776 38.4-27.648 38.4z m-339.968 58.368c21.504 0 38.912 17.408 38.912 38.912 0 21.504-17.408 38.912-38.912 38.912h-77.312v48.128c0 26.624-21.504 48.128-48.128 48.128s-48.128-21.504-48.128-48.128v-48.128H386.048c-21.504 0-38.912-17.408-38.912-38.912 0-21.504 17.408-38.912 38.912-38.912h77.312v-38.912H386.048c-21.504 0-38.912-17.408-38.912-38.912 0-21.504 17.408-38.912 38.912-38.912h77.312v-2.56L377.856 369.152c-15.36-15.36-15.36-39.936 0-55.296 15.36-15.36 39.936-15.36 55.296 0l78.336 78.336 78.848-78.848c15.36-15.36 39.936-15.36 55.296 0 15.36 15.36 15.36 39.936 0 55.296l-84.992 84.992v4.096h77.312c21.504 0 38.912 17.408 38.912 38.912 0 21.504-17.408 38.912-38.912 38.912h-77.312v38.912l77.312-0.512z m-388.608 54.272c16.896 10.752 12.8 32.768-5.632 34.816-18.432 2.048-77.312 7.168-77.312 7.168 46.08 108.544 140.288 194.048 261.632 222.72 203.776 48.128 411.648-81.92 458.24-289.792 1.024-4.096 1.024-3.584 2.56-12.8s4.608-23.04 22.528-16.896c17.92 6.144 61.44 18.944 75.264 22.528s12.288 9.216 10.24 21.504c-0.512 4.096-1.536 7.168-2.048 11.264-60.928 270.848-326.144 439.808-592.384 377.344-215.552-50.688-365.568-237.568-382.464-450.56-2.048-36.864 23.552-44.032 50.176-30.208 20.992 10.752 162.304 92.16 179.2 102.912z" p-id="2465"></path></svg>