<?xml version="1.0" standalone="no"?><!DOCTYPE svg PUBLIC "-//W3C//DTD SVG 1.1//EN" "http://www.w3.org/Graphics/SVG/1.1/DTD/svg11.dtd"><svg t="1610445112813" class="icon" viewBox="0 0 1024 1024" version="1.1" xmlns="http://www.w3.org/2000/svg" p-id="4852" xmlns:xlink="http://www.w3.org/1999/xlink" width="200" height="200"><defs><style type="text/css"></style></defs><path d="M930.90816 983.04H93.10208A93.184 93.184 0 0 1 0 889.856V144.384A93.184 93.184 0 0 1 93.10208 51.2H930.9184a93.12256 93.12256 0 0 1 93.0816 93.184v209.65376H651.65312a163.072 163.072 0 0 0 0 326.144H1024V889.856a93.184 93.184 0 0 1-93.09184 93.184zM651.65312 400.62976a116.48 116.48 0 0 0 0 232.96H1024v-232.96H651.65312z m0 163.072a46.592 46.592 0 1 1 46.53056-46.592 46.57152 46.57152 0 0 1-46.53056 46.592z" p-id="4853"></path></svg>